<svg width="26" height="32" viewBox="0 0 26 32" fill="none" xmlns="http://www.w3.org/2000/svg">
<path d="M18.8798 20.46L23.1598 24.74L21.7398 26.16L17.4598 21.88C16.6732 22.5067 15.8132 22.9867 14.8798 23.32C13.8932 23.6667 12.8798 23.84 11.8398 23.84C10.2132 23.84 8.69984 23.4334 7.29984 22.62C5.93984 21.82 4.86651 20.74 4.07984 19.38C3.25318 17.98 2.83984 16.4667 2.83984 14.84C2.83984 13.2134 3.25318 11.7 4.07984 10.3C4.86651 8.94003 5.93984 7.8667 7.29984 7.08003C8.69984 6.25337 10.2132 5.84003 11.8398 5.84003C13.4665 5.84003 14.9798 6.25337 16.3798 7.08003C17.7398 7.8667 18.8198 8.94003 19.6198 10.3C20.4332 11.7 20.8398 13.2134 20.8398 14.84C20.8398 15.88 20.6665 16.8934 20.3198 17.88C19.9865 18.8134 19.5065 19.6734 18.8798 20.46ZM16.8598 19.72C17.4865 19.08 17.9732 18.3467 18.3198 17.52C18.6665 16.6667 18.8398 15.7734 18.8398 14.84C18.8398 13.5734 18.5198 12.3934 17.8798 11.3C17.2665 10.2467 16.4332 9.41337 15.3798 8.80004C14.2865 8.16003 13.1065 7.84003 11.8398 7.84003C10.5732 7.84003 9.39318 8.16003 8.29984 8.80004C7.24651 9.41337 6.41318 10.2467 5.79984 11.3C5.15984 12.3934 4.83984 13.5734 4.83984 14.84C4.83984 16.1067 5.15984 17.2867 5.79984 18.38C6.41318 19.4334 7.24651 20.2667 8.29984 20.88C9.39318 21.52 10.5732 21.84 11.8398 21.84C12.7732 21.84 13.6665 21.6667 14.5198 21.32C15.3465 20.9734 16.0798 20.4867 16.7198 19.86L16.8598 19.72Z" fill="#16A34A"/>
</svg>
