<svg width="26" height="32" viewBox="0 0 26 32" fill="none" xmlns="http://www.w3.org/2000/svg">
<path d="M7.24 10.46C6.53333 11.1933 5.98667 12.0267 5.6 12.96C5.2 13.9333 5 14.9467 5 16C5 17.4533 5.36667 18.8 6.1 20.04C6.80667 21.24 7.76 22.1933 8.96 22.9C10.2 23.6333 11.5467 24 13 24C14.0667 24 15.0867 23.8 16.06 23.4C16.1 23.0667 16.0867 22.7133 16.02 22.34C15.9667 22.1133 15.9 21.8933 15.82 21.68C15.58 21.12 14.8267 20.1733 13.56 18.84C13.4 18.6667 13.3067 18.48 13.28 18.28C13.2667 18.1333 13.2933 17.84 13.36 17.4L13.38 17.3C13.4067 17.0867 13.46 16.9267 13.54 16.82C13.6467 16.6733 13.84 16.5467 14.12 16.44C14.4133 16.32 14.86 16.2133 15.46 16.12C15.7667 16.08 16.01 16.0833 16.19 16.13C16.37 16.1767 16.5267 16.2733 16.66 16.42C16.74 16.5 16.8533 16.6533 17 16.88L17.12 17.04C17.2667 17.2667 17.42 17.4333 17.58 17.54C17.6733 17.62 17.8333 17.7067 18.06 17.8C18.3 17.92 18.52 18.0367 18.72 18.15C18.92 18.2633 19.0667 18.39 19.16 18.53C19.2533 18.67 19.3133 18.8533 19.34 19.08C19.3533 19.2133 19.36 19.4667 19.36 19.84V19.96C19.36 20.32 19.3267 20.66 19.26 20.98C19.82 20.2867 20.2467 19.52 20.54 18.68C20.8467 17.8267 21 16.9333 21 16C21 14.92 20.7933 13.8867 20.38 12.9C19.98 11.94 19.4133 11.0933 18.68 10.36C17.9467 9.62667 17.1067 9.05333 16.16 8.64C15.2933 9.22667 14.7667 9.64667 14.58 9.9C14.5533 9.94 14.5133 10.0267 14.46 10.16C14.3533 10.4267 14.2533 10.62 14.16 10.74C14.0133 10.9667 13.8333 11.0933 13.62 11.12C13.5133 11.1333 13.3133 11.1333 13.02 11.12C12.5667 11.08 12.2267 11.0867 12 11.14C11.6267 11.22 11.38 11.4267 11.26 11.76C11.2067 11.9333 11.1733 12.16 11.16 12.44C11.1467 12.76 11.1733 13.06 11.24 13.34C11.32 13.6733 11.4467 13.9467 11.62 14.16C11.7133 14.2667 11.7267 14.44 11.66 14.68C11.6333 14.8 11.5867 14.9133 11.52 15.02C11.4667 15.0867 11.42 15.14 11.38 15.18C11.3133 15.14 11.17 14.9933 10.95 14.74C10.73 14.4867 10.5533 14.3 10.42 14.18C10.1933 13.98 9.96667 13.8467 9.74 13.78C9.63333 13.7533 9.44667 13.7133 9.18 13.66L9.16 13.64C8.78667 13.56 8.52 13.4933 8.36 13.44C8.08 13.3467 7.90667 13.2333 7.84 13.1C7.8 12.9933 7.77333 12.86 7.76 12.7C7.74667 12.6067 7.74 12.4467 7.74 12.22C7.74 11.94 7.73333 11.7267 7.72 11.58C7.69333 11.3133 7.63333 11.08 7.54 10.88C7.46 10.72 7.36 10.58 7.24 10.46ZM13 26C11.64 26 10.34 25.74 9.1 25.22C7.91333 24.7133 6.85667 23.9967 5.93 23.07C5.00333 22.1433 4.28667 21.0867 3.78 19.9C3.26 18.66 3 17.36 3 16C3 14.64 3.26 13.34 3.78 12.1C4.28667 10.9133 5.00333 9.85667 5.93 8.93C6.85667 8.00333 7.91333 7.28667 9.1 6.78C10.34 6.26 11.64 6 13 6C14.36 6 15.66 6.26 16.9 6.78C18.0867 7.28667 19.1433 8.00333 20.07 8.93C20.9967 9.85667 21.7133 10.9133 22.22 12.1C22.74 13.34 23 14.64 23 16C23 17.36 22.74 18.66 22.22 19.9C21.7133 21.0867 20.9967 22.1433 20.07 23.07C19.1433 23.9967 18.0867 24.7133 16.9 25.22C15.66 25.74 14.36 26 13 26Z" fill="#9333EA"/>
</svg>
