<svg width="64" height="64" viewBox="0 0 64 64" fill="none" xmlns="http://www.w3.org/2000/svg">
<rect width="64" height="64" rx="32" fill="#9333EA"/>
<path d="M28 25C28 24.28 28.18 23.6133 28.54 23C28.9 22.3867 29.3867 21.9 30 21.54C30.6133 21.18 31.28 21 32 21C32.72 21 33.3867 21.18 34 21.54C34.6133 21.9 35.1 22.3867 35.46 23C35.82 23.6133 36 24.28 36 25V30.26C36.92 30.9 37.6467 31.7133 38.18 32.7C38.7267 33.7267 39 34.8267 39 36C39 37.2667 38.68 38.4467 38.04 39.54C37.4267 40.5933 36.5933 41.4267 35.54 42.04C34.4467 42.68 33.2667 43 32 43C30.7333 43 29.5533 42.68 28.46 42.04C27.4067 41.4267 26.5733 40.5933 25.96 39.54C25.32 38.4467 25 37.2667 25 36C25 34.8267 25.2733 33.7267 25.82 32.7C26.3533 31.7133 27.08 30.9 28 30.26V25ZM29.14 31.9C28.4733 32.3667 27.95 32.96 27.57 33.68C27.19 34.4 27 35.1733 27 36C27 36.9067 27.2233 37.7433 27.67 38.51C28.1167 39.2767 28.7233 39.8833 29.49 40.33C30.2567 40.7767 31.0933 41 32 41C32.9067 41 33.7433 40.7767 34.51 40.33C35.2767 39.8833 35.8833 39.2767 36.33 38.51C36.7767 37.7433 37 36.9067 37 36C37 35.1733 36.81 34.4 36.43 33.68C36.05 32.96 35.5267 32.3667 34.86 31.9L34 31.3V25C34 24.64 33.91 24.3067 33.73 24C33.55 23.6933 33.3067 23.45 33 23.27C32.6933 23.09 32.36 23 32 23C31.64 23 31.3067 23.09 31 23.27C30.6933 23.45 30.45 23.6933 30.27 24C30.09 24.3067 30 24.64 30 25V31.3L29.14 31.9ZM31 32.12V25H33V32.12C33.5733 32.2667 34.0867 32.53 34.54 32.91C34.9933 33.29 35.35 33.7467 35.61 34.28C35.87 34.8133 36 35.3867 36 36C36 36.72 35.82 37.3867 35.46 38C35.1 38.6133 34.6133 39.1 34 39.46C33.3867 39.82 32.72 40 32 40C31.28 40 30.6133 39.82 30 39.46C29.3867 39.1 28.9 38.6133 28.54 38C28.18 37.3867 28 36.72 28 36C28 35.3867 28.13 34.8133 28.39 34.28C28.65 33.7467 29.0067 33.29 29.46 32.91C29.9133 32.53 30.4267 32.2667 31 32.12ZM32 38C32.36 38 32.6933 37.91 33 37.73C33.3067 37.55 33.55 37.3067 33.73 37C33.91 36.6933 34 36.36 34 36C34 35.64 33.91 35.3067 33.73 35C33.55 34.6933 33.3067 34.45 33 34.27C32.6933 34.09 32.36 34 32 34C31.64 34 31.3067 34.09 31 34.27C30.6933 34.45 30.45 34.6933 30.27 35C30.09 35.3067 30 35.64 30 36C30 36.36 30.09 36.6933 30.27 37C30.45 37.3067 30.6933 37.55 31 37.73C31.3067 37.91 31.64 38 32 38Z" fill="white"/>
</svg>
